<svg xmlns="http://www.w3.org/2000/svg" viewBox="0 0 48 48" fill="#ffec3d"><path d="M 17.779297 6.9023438 C 12.121338 6.8474121 13 13 13 13 C 20 14 19 7 19 7 C 18.5625 6.9375 18.156494 6.9060059 17.779297 6.9023438 z M 31.220703 6.9023438 C 30.843506 6.9060059 30.4375 6.9375 30 7 C 30 7 29 14 36 13 C 36 13 36.878662 6.8474121 31.220703 6.9023438 z M 6.9414062 10.546875 C 6.7752812 10.546219 6.6147812 10.628687 6.5195312 10.773438 C 6.4385312 10.898438 4.5353437 13.864828 5.5273438 16.798828 C 6.1423438 18.624828 7.7235625 19.998719 10.226562 20.886719 L 10.228516 20.886719 C 11.338516 21.407719 12.384375 21.671875 13.359375 21.671875 C 14.110375 21.671875 14.820422 21.517031 15.482422 21.207031 C 18.160422 19.950031 19.036266 16.617563 19.072266 16.476562 C 19.128266 16.259563 19.031891 16.031922 18.837891 15.919922 C 16.694891 14.690922 14.821625 14.441781 13.265625 15.175781 C 12.755625 15.416781 12.319313 15.747 11.945312 16.125 C 11.912313 15.605 11.816953 15.071063 11.626953 14.539062 C 10.988953 12.759063 9.4674219 11.426172 7.1074219 10.576172 C 7.0531719 10.556922 6.9967812 10.547094 6.9414062 10.546875 z M 41.621094 10.548828 C 41.565672 10.549 41.509578 10.557172 41.455078 10.576172 C 39.095078 11.426172 37.574547 12.759063 36.935547 14.539062 C 36.744547 15.070063 36.649188 15.606953 36.617188 16.126953 C 36.244188 15.748953 35.807875 15.416781 35.296875 15.175781 C 33.741875 14.442781 31.866609 14.692875 29.724609 15.921875 C 29.529609 16.032875 29.434234 16.261516 29.490234 16.478516 C 29.524234 16.618516 30.399125 19.950031 33.078125 21.207031 C 33.740125 21.518031 34.450172 21.671875 35.201172 21.671875 C 36.176172 21.671875 37.222031 21.408719 38.332031 20.886719 L 38.333984 20.886719 C 40.835984 19.998719 42.416203 18.623828 43.033203 16.798828 C 44.025203 13.863828 42.123969 10.898437 42.042969 10.773438 C 41.947719 10.628687 41.787359 10.548312 41.621094 10.548828 z M 32.03125 22.5 C 31.81325 22.492 31.596391 22.626797 31.525391 22.841797 C 31.488391 22.951797 30.643813 25.557625 32.007812 27.765625 C 32.918813 29.240625 34.574734 30.159141 36.927734 30.494141 C 37.814734 30.712141 38.644156 30.824219 39.410156 30.824219 C 40.847156 30.824219 42.066734 30.440734 43.052734 29.677734 C 45.502734 27.779734 45.557594 24.258375 45.558594 24.109375 C 45.562594 23.878375 45.404687 23.674141 45.179688 23.619141 C 42.742688 23.021141 40.738656 23.293828 39.222656 24.423828 C 38.627656 24.867828 38.165781 25.404797 37.800781 25.966797 C 37.701781 25.642797 37.568859 25.322719 37.380859 25.011719 C 36.477859 23.517719 34.67725 22.671 32.03125 22.5 z M 16.96875 22.501953 C 14.29675 22.674953 12.444844 23.531734 11.464844 25.052734 C 11.216844 25.437734 11.044781 25.839234 10.925781 26.240234 C 10.539781 25.579234 10.028891 24.938828 9.3378906 24.423828 C 7.8208906 23.293828 5.8168594 23.021141 3.3808594 23.619141 C 3.1558594 23.674141 2.998 23.878375 3 24.109375 C 3.001 24.258375 3.0558594 27.779734 5.5058594 29.677734 C 6.4918594 30.441734 7.7114375 30.824219 9.1484375 30.824219 C 9.9144375 30.824219 10.743859 30.712141 11.630859 30.494141 C 14.001859 30.155141 15.708172 29.227328 16.701172 27.736328 C 18.156172 25.548328 17.512375 22.981047 17.484375 22.873047 C 17.423375 22.641047 17.18675 22.472953 16.96875 22.501953 z M 18.933594 29.197266 C 15.048594 29.471266 13.594813 31.388984 13.132812 33.333984 C 12.545813 32.901984 11.860313 32.544906 11.070312 32.378906 C 9.3013125 32.006906 7.4495938 32.6575 5.5585938 34.3125 C 5.3755938 34.4715 5.3339375 34.741219 5.4609375 34.949219 C 5.5379375 35.075219 7.3765313 38.049359 10.394531 38.568359 C 10.692531 38.619359 10.989109 38.644531 11.287109 38.644531 C 12.046313 38.644531 12.805153 38.453421 13.560547 38.117188 C 14.56104 38.946398 15.725605 39.640595 16.978516 40.205078 C 15.276925 41.109738 14.251953 41.9375 14.251953 41.9375 A 2.0002 2.0002 0 1 0 16.748047 45.0625 C 16.748047 45.0625 20.105295 42.47212 24.28125 41.984375 C 28.456311 42.472693 31.8125 45.0625 31.8125 45.0625 A 2.0002 2.0002 0 1 0 34.308594 41.9375 C 34.308594 41.9375 33.283153 41.109738 31.582031 40.205078 C 32.836309 39.639979 34.002682 38.945636 35.003906 38.115234 C 35.758065 38.450922 36.516011 38.642578 37.273438 38.642578 C 37.571438 38.642578 37.869969 38.617406 38.167969 38.566406 C 41.186969 38.046406 43.024563 35.073266 43.101562 34.947266 C 43.227562 34.739266 43.186906 34.4715 43.003906 34.3125 C 41.111906 32.6575 39.258234 32.006906 37.490234 32.378906 C 36.687234 32.547906 35.993391 32.912516 35.400391 33.353516 C 34.952391 31.405516 33.512094 29.474219 29.621094 29.199219 C 29.391094 29.183219 29.179438 29.348172 29.148438 29.576172 C 28.993196 30.699787 28.772788 33.931997 30.884766 35.960938 C 28.998428 36.956282 26.51171 37.790308 24.480469 37.941406 C 24.412972 37.946418 24.348336 37.957068 24.28125 37.962891 C 24.214164 37.957068 24.149528 37.946418 24.082031 37.941406 C 22.055482 37.790657 19.574817 36.961038 17.689453 35.96875 C 19.783018 33.926721 19.561176 30.698821 19.40625 29.576172 C 19.37425 29.347172 19.163594 29.180266 18.933594 29.197266 z"/></svg>
