<svg width="30" height="30" viewBox="0 0 30 30" fill="none" xmlns="http://www.w3.org/2000/svg">
<rect width="30" height="30" rx="4" fill="#4F65FF"/>
<rect width="30" height="30" rx="4" fill="url(#paint0_linear_279_110)" fill-opacity="0.2"/>
<rect x="1" y="1" width="28" height="28" rx="3" stroke="url(#paint1_linear_279_110)" stroke-opacity="0.2" stroke-width="2"/>
<path d="M13.9354 22.5H13.1354C12.8287 22.5 12.5487 22.4467 12.2954 22.34C12.0421 22.2333 11.8154 22.0867 11.6154 21.9C11.4287 21.7 11.2821 21.4733 11.1754 21.22C11.0687 20.9667 11.0154 20.6867 11.0154 20.38V18.96L13.7354 18.5V19.78C13.7354 19.9133 13.7954 19.98 13.9154 19.98H16.0154C16.1487 19.98 16.2154 19.9133 16.2154 19.78V17.92C16.2154 17.84 16.1887 17.78 16.1354 17.74C16.0954 17.7 16.0421 17.6667 15.9754 17.64C15.8954 17.6133 15.6221 17.52 15.1554 17.36C14.6887 17.2 13.9221 16.94 12.8554 16.58C12.2821 16.3933 11.8354 16.1667 11.5154 15.9C11.2087 15.62 11.0554 15.18 11.0554 14.58V11.28C11.0554 10.9867 11.1087 10.7133 11.2154 10.46C11.3221 10.2067 11.4687 9.98667 11.6554 9.8C11.8554 9.6 12.0821 9.44667 12.3354 9.34C12.5887 9.23333 12.8687 9.18 13.1754 9.18H13.9354V7.4H15.9554V9.18H16.7754C17.0687 9.18 17.3421 9.23333 17.5954 9.34C17.8621 9.44667 18.0887 9.6 18.2754 9.8C18.4754 9.98667 18.6287 10.2067 18.7354 10.46C18.8421 10.7133 18.8954 10.9867 18.8954 11.28V12.64L16.1754 13.08V11.88C16.1754 11.7467 16.1087 11.68 15.9754 11.68H13.9954C13.8754 11.68 13.8154 11.7467 13.8154 11.88V14C13.8154 14.08 13.8287 14.1333 13.8554 14.16C13.8954 14.1867 13.9487 14.2133 14.0154 14.24C14.1221 14.28 14.4421 14.3933 14.9754 14.58C15.5221 14.7533 16.2754 15.0067 17.2354 15.34C17.7687 15.5267 18.1887 15.76 18.4954 16.04C18.8154 16.32 18.9754 16.7467 18.9754 17.32V20.38C18.9754 20.6867 18.9154 20.9667 18.7954 21.22C18.6887 21.4733 18.5421 21.7 18.3554 21.9C18.1687 22.0867 17.9421 22.2333 17.6754 22.34C17.4221 22.4467 17.1487 22.5 16.8554 22.5H15.9554V24.28H13.9354V22.5Z" fill="white" fill-opacity="0.6"/>
<defs>
<linearGradient id="paint0_linear_279_110" x1="0.999999" y1="6.85453e-07" x2="29" y2="30" gradientUnits="userSpaceOnUse">
<stop stop-color="white"/>
<stop offset="1"/>
</linearGradient>
<linearGradient id="paint1_linear_279_110" x1="0.999999" y1="6.85453e-07" x2="29" y2="30" gradientUnits="userSpaceOnUse">
<stop stop-color="white"/>
<stop offset="1" stop-color="white" stop-opacity="0"/>
</linearGradient>
</defs>
</svg>
